<svg width="20" height="21" viewBox="0 0 20 21" fill="none" xmlns="http://www.w3.org/2000/svg">
<path d="M19.3536 7.62923L13.358 6.71789L10.6778 1.03496C10.6046 0.879369 10.4841 0.753411 10.3354 0.676848C9.96227 0.484207 9.50887 0.644741 9.32232 1.03496L6.64213 6.71789L0.646516 7.62923C0.481218 7.65393 0.330088 7.73543 0.214379 7.85892C0.0744931 8.0093 -0.00259025 8.21161 6.6464e-05 8.42139C0.00272317 8.63118 0.0849026 8.83128 0.228547 8.97773L4.56645 13.4011L3.5416 19.6471C3.51757 19.7924 3.53294 19.9418 3.58598 20.0785C3.63901 20.2151 3.72759 20.3334 3.84166 20.4201C3.95573 20.5067 4.09074 20.5582 4.23137 20.5687C4.37199 20.5792 4.51262 20.5483 4.63729 20.4794L10 17.5305L15.3628 20.4794C15.5092 20.5609 15.6792 20.5881 15.8422 20.5584C16.2531 20.4844 16.5293 20.0768 16.4585 19.6471L15.4336 13.4011L19.7715 8.97773C19.8896 8.85671 19.9675 8.69864 19.9912 8.52576C20.0549 8.09355 19.7668 7.69345 19.3536 7.62923ZM13.6083 12.7787L14.4607 17.9726L10 15.5226L5.53935 17.9751L6.39182 12.7812L2.78359 9.10121L7.77088 8.343L10 3.61834L12.2292 8.343L17.2165 9.10121L13.6083 12.7787Z" fill="#3D58A7"/>
</svg>
