<svg width="29" height="29" viewBox="0 0 29 29" fill="none" xmlns="http://www.w3.org/2000/svg">
<path d="M18.9167 9.10172L19.0303 9.34285L19.2938 9.38296L27.9858 10.7058C27.986 10.7058 27.9863 10.7059 27.9865 10.7059C28.2997 10.755 28.5471 11.0702 28.4925 11.4404L28.4925 11.4404L28.4918 11.4457C28.472 11.5909 28.4069 11.7215 28.311 11.8201C28.3109 11.8203 28.3108 11.8204 28.3106 11.8205L22.0216 18.2413L21.8444 18.4222L21.8854 18.6721L23.3714 27.74L23.3715 27.7404C23.4329 28.1135 23.191 28.4344 22.8823 28.4902L22.8816 28.4903C22.758 28.5128 22.6294 28.492 22.5195 28.4307L22.5172 28.4295L14.7412 24.1483L14.5001 24.0155L14.2589 24.1483L6.48293 28.4295L6.48214 28.4299C6.38557 28.4833 6.27856 28.5064 6.17271 28.4985C6.06681 28.4906 5.96293 28.4517 5.87309 28.3833C5.78302 28.3148 5.7102 28.219 5.66585 28.1046C5.62146 27.9901 5.60829 27.8638 5.62863 27.7406L5.62874 27.74L7.11477 18.6721L7.15572 18.4222L6.97855 18.2413L0.688593 11.8196L0.688562 11.8195C0.572614 11.7012 0.502324 11.5347 0.500056 11.3554C0.497793 11.1765 0.563624 11.0081 0.676526 10.8862C0.770642 10.7859 0.888408 10.7246 1.01142 10.7062L1.01268 10.706L9.70631 9.38296L9.96983 9.34285L10.0834 9.10172L13.9686 0.853684C13.9687 0.853373 13.9689 0.853062 13.969 0.852751C14.1249 0.527601 14.4805 0.419705 14.7567 0.562497L14.7573 0.562802C14.872 0.621912 14.9696 0.721736 15.0302 0.850887L15.0304 0.851312L18.9167 9.10172Z" fill="#ADC2FF" stroke="#ADC2FF"/>
</svg>
