<svg width="23" height="22" viewBox="0 0 23 22" fill="none" xmlns="http://www.w3.org/2000/svg">
<path d="M21.526 7.74683L14.8574 6.74311L11.8763 0.484186C11.7949 0.31282 11.6609 0.174096 11.4955 0.089773C11.0805 -0.122394 10.5762 0.0544119 10.3687 0.484186L7.38768 6.74311L0.719086 7.74683C0.535233 7.77403 0.367139 7.86379 0.238442 7.99979C0.0828548 8.16541 -0.00288099 8.38822 7.39243e-05 8.61927C0.00302884 8.85032 0.0944327 9.0707 0.254201 9.232L5.07902 14.1037L3.93913 20.9828C3.9124 21.1428 3.9295 21.3074 3.98849 21.4579C4.04748 21.6083 4.146 21.7387 4.27288 21.8341C4.39975 21.9295 4.54991 21.9862 4.70632 21.9978C4.86274 22.0093 5.01915 21.9753 5.15781 21.8995L11.1225 18.6517L17.0872 21.8995C17.2501 21.9892 17.4392 22.0191 17.6204 21.9865C18.0774 21.9049 18.3847 21.4561 18.3059 20.9828L17.166 14.1037L21.9908 9.232C22.1222 9.09871 22.2088 8.92463 22.2351 8.73422C22.306 8.2582 21.9856 7.81755 21.526 7.74683ZM15.1358 13.4182L16.0839 19.1386L11.1225 16.4402L6.16113 19.1413L7.10928 13.4209L3.09604 9.368L8.64314 8.53293L11.1225 3.3294L13.6019 8.53293L19.149 9.368L15.1358 13.4182Z" fill="#FBFCFF"/>
</svg>
